<svg xmlns="http://www.w3.org/2000/svg" data-name="Layer 18" viewBox="0 0 36 45" x="0px" y="0px"><path d="m33.65,12.8L19.65,2.3c-.97-.73-2.33-.73-3.3,0L2.35,12.8c-.69.52-1.1,1.34-1.1,2.2v17c0,1.52,1.23,2.75,2.75,2.75h28c1.52,0,2.75-1.23,2.75-2.75V15c0-.86-.41-1.68-1.1-2.2Zm-18.9,20.45v-9.25c0-.14.11-.25.25-.25h6c.14,0,.25.11.25.25v9.25h-6.5Zm18.5-1.25c0,.69-.56,1.25-1.25,1.25h-9.25v-9.25c0-.96-.79-1.75-1.75-1.75h-6c-.96,0-1.75.79-1.75,1.75v9.25H4c-.69,0-1.25-.56-1.25-1.25V15c0-.39.19-.77.5-1L17.25,3.5c.22-.17.49-.25.75-.25s.53.08.75.25l14,10.5c.31.24.5.61.5,1v17Z"/><text x="0" y="51" fill="#000000" font-size="5px" font-weight="bold" font-family="'Helvetica Neue', Helvetica, Arial-Unicode, Arial, Sans-serif">Created by Humam</text><text x="0" y="56" fill="#000000" font-size="5px" font-weight="bold" font-family="'Helvetica Neue', Helvetica, Arial-Unicode, Arial, Sans-serif">from the Noun Project</text></svg>