<svg xmlns="http://www.w3.org/2000/svg" data-name="Layer 18" viewBox="0 0 36 45" x="0px" y="0px"><path d="m15.25,24.25h5.5v11h-5.5v-11Zm18.7-11.85L19.95,1.9c-1.15-.86-2.75-.86-3.9,0L2.05,12.4c-.81.61-1.3,1.58-1.3,2.6v17c0,1.79,1.46,3.25,3.25,3.25h8.75v-11.25c0-1.24,1.01-2.25,2.25-2.25h6c1.24,0,2.25,1.01,2.25,2.25v11.25h8.75c1.79,0,3.25-1.46,3.25-3.25V15c0-1.02-.49-1.99-1.3-2.6Z"/><text x="0" y="51" fill="#000000" font-size="5px" font-weight="bold" font-family="'Helvetica Neue', Helvetica, Arial-Unicode, Arial, Sans-serif">Created by Humam</text><text x="0" y="56" fill="#000000" font-size="5px" font-weight="bold" font-family="'Helvetica Neue', Helvetica, Arial-Unicode, Arial, Sans-serif">from the Noun Project</text></svg>