<svg xmlns="http://www.w3.org/2000/svg" xmlns:xlink="http://www.w3.org/1999/xlink" version="1.1" x="0px" y="0px" viewBox="0 0 100 125" enable-background="new 0 0 100 100" xml:space="preserve"><path d="M66.967,56.131c-4.123,0-7.002,3.054-7.002,7.426c0,4.562,3.141,8.272,7.002,8.272c3.862,0,7.004-3.711,7.004-8.272  C73.971,59.185,71.091,56.131,66.967,56.131z M66.967,68.829c-2.207,0-4.002-2.365-4.002-5.272c0-2.688,1.571-4.426,4.002-4.426  c2.433,0,4.004,1.737,4.004,4.426C70.971,66.464,69.175,68.829,66.967,68.829z M66.965,47.207c-0.135,0-0.266,0.018-0.4,0.021  v-26.31c0-5.522-4.479-10-10-10H22.1c-5.521,0-10,4.478-10,10v48.393c0,5.523,4.479,10,10,10h27.185  c3.715,5.861,10.243,9.771,17.681,9.771c11.544,0,20.936-9.393,20.936-20.938S78.509,47.207,66.965,47.207z M34.119,21.418h10.426  c1.104,0,2,0.896,2,2s-0.896,2-2,2H34.119c-1.105,0-2-0.896-2-2S33.014,21.418,34.119,21.418z M22.457,33.104h33.75  c1.104,0,2,0.896,2,2s-0.896,2-2,2h-33.75c-1.105,0-2-0.896-2-2S21.352,33.104,22.457,33.104z M22.457,40.89h33.75  c1.104,0,2,0.896,2,2s-0.896,2-2,2h-33.75c-1.105,0-2-0.896-2-2S21.352,40.89,22.457,40.89z M22.457,48.676h33.75  c0.609,0,1.145,0.282,1.512,0.712c-1.76,0.871-3.376,1.979-4.814,3.288H22.457c-1.105,0-2-0.896-2-2S21.352,48.676,22.457,48.676z   M46.032,68.248H22.457c-1.105,0-2-0.896-2-2s0.895-2,2-2h23.947c-0.238,1.264-0.377,2.564-0.377,3.896  C46.027,68.18,46.032,68.213,46.032,68.248z M22.457,60.462c-1.105,0-2-0.896-2-2s0.895-2,2-2h27.142  c-0.878,1.301-1.595,2.716-2.166,4.202L22.457,60.462z M66.965,86.082c-3.311,0-6.404-0.917-9.068-2.488  c0.02-0.717,0.063-1.616,0.106-1.861c0.778-4.301,5.304-5.204,8.964-5.204c2.53,0,8.476,0.558,9.038,5.721  c0.018,0.163,0.031,0.82,0.036,1.339C73.375,85.163,70.278,86.082,66.965,86.082z M78.917,81.481  c-0.775-4.985-5.197-7.952-11.95-7.952c-6.691,0-11.034,2.795-11.917,7.677c-0.014,0.077-0.025,0.175-0.037,0.276  c-3.663-3.287-5.985-8.04-5.985-13.337c0-9.891,8.047-17.938,17.938-17.938c9.89,0,17.936,8.047,17.936,17.938  C84.9,73.441,82.579,78.195,78.917,81.481z"/><text x="0" y="115" fill="#000000" font-size="5px" font-weight="bold" font-family="'Helvetica Neue', Helvetica, Arial-Unicode, Arial, Sans-serif">Created by Deepz</text><text x="0" y="120" fill="#000000" font-size="5px" font-weight="bold" font-family="'Helvetica Neue', Helvetica, Arial-Unicode, Arial, Sans-serif">from the Noun Project</text></svg>