<svg xmlns="http://www.w3.org/2000/svg" xmlns:xlink="http://www.w3.org/1999/xlink" version="1.1" x="0px" y="0px" viewBox="0 0 100 125" enable-background="new 0 0 100 100" xml:space="preserve"><g><polyline fill="none" stroke="#000000" stroke-width="3" stroke-linecap="round" stroke-linejoin="round" stroke-miterlimit="10" points="   247.534,733 219.063,733 219.063,675.994 231.648,665.244 268.899,665.244 268.899,705.047  "/><polyline fill="none" stroke="#000000" stroke-width="3" stroke-linecap="round" stroke-linejoin="round" stroke-miterlimit="10" points="   238.252,658.057 276.088,658.057 276.088,702.984  "/><line fill="none" stroke="#000000" stroke-width="3" stroke-linecap="round" stroke-linejoin="round" stroke-miterlimit="10" x1="227.689" y1="683.02" x2="259.439" y2="683.02"/><line fill="none" stroke="#000000" stroke-width="3" stroke-linecap="round" stroke-linejoin="round" stroke-miterlimit="10" x1="227.689" y1="690.588" x2="259.439" y2="690.588"/><line fill="none" stroke="#000000" stroke-width="3" stroke-linecap="round" stroke-linejoin="round" stroke-miterlimit="10" x1="227.689" y1="698.154" x2="259.439" y2="698.154"/><line fill="none" stroke="#000000" stroke-width="3" stroke-linecap="round" stroke-linejoin="round" stroke-miterlimit="10" x1="227.689" y1="705.723" x2="250.189" y2="705.723"/><line fill="none" stroke="#000000" stroke-width="3" stroke-linecap="round" stroke-linejoin="round" stroke-miterlimit="10" x1="227.689" y1="713.289" x2="243.981" y2="713.289"/><g><g><g><g><g><g><g><g><line fill="none" stroke="#000000" stroke-width="3" stroke-linecap="round" stroke-linejoin="round" stroke-miterlimit="10" x1="265.457" y1="734.159" x2="265.457" y2="715.993"/><polyline fill="none" stroke="#000000" stroke-width="3" stroke-linecap="round" stroke-linejoin="round" stroke-miterlimit="10" points="           257.914,723.536 265.456,715.993 272.999,723.536          "/></g></g></g></g></g></g></g><circle fill="none" stroke="#000000" stroke-width="3" stroke-linecap="round" stroke-linejoin="round" stroke-miterlimit="10" cx="265.457" cy="725.075" r="19.437"/></g></g><path d="M35.845,8.229h36.336v43.428c0,0.828,0.672,1.5,1.5,1.5s1.5-0.672,1.5-1.5V6.729c0-0.829-0.672-1.5-1.5-1.5H35.845  c-0.829,0-1.5,0.671-1.5,1.5S35.017,8.229,35.845,8.229z M25.283,33.193h31.75c0.828,0,1.5-0.671,1.5-1.5s-0.672-1.5-1.5-1.5h-31.75  c-0.829,0-1.5,0.671-1.5,1.5S24.454,33.193,25.283,33.193z M25.283,40.761h31.75c0.828,0,1.5-0.672,1.5-1.5s-0.672-1.5-1.5-1.5  h-31.75c-0.829,0-1.5,0.672-1.5,1.5S24.454,40.761,25.283,40.761z M25.283,48.328h31.75c0.828,0,1.5-0.672,1.5-1.5  s-0.672-1.5-1.5-1.5h-31.75c-0.829,0-1.5,0.672-1.5,1.5S24.454,48.328,25.283,48.328z M47.783,52.896h-22.5  c-0.829,0-1.5,0.672-1.5,1.5s0.671,1.5,1.5,1.5h22.5c0.828,0,1.5-0.672,1.5-1.5S48.611,52.896,47.783,52.896z M41.575,60.463H25.283  c-0.829,0-1.5,0.672-1.5,1.5s0.671,1.5,1.5,1.5h16.292c0.828,0,1.5-0.672,1.5-1.5S42.403,60.463,41.575,60.463z M63.91,61.819  c-4.123,0-7.002,3.054-7.002,7.426c0,4.562,3.141,8.272,7.002,8.272s7.004-3.711,7.004-8.272  C70.914,64.873,68.033,61.819,63.91,61.819z M63.91,74.518c-2.207,0-4.002-2.365-4.002-5.272c0-2.688,1.57-4.426,4.002-4.426  s4.004,1.737,4.004,4.426C67.914,72.152,66.117,74.518,63.91,74.518z M67.992,53.302V13.917c0-0.829-0.672-1.5-1.5-1.5h-37.25  c-0.357,0-0.703,0.127-0.974,0.359l-12.585,10.75c-0.334,0.285-0.526,0.702-0.526,1.141v57.006c0,0.828,0.671,1.5,1.5,1.5h28.471  c0.022,0,0.044-0.006,0.066-0.007c3.439,6.867,10.525,11.604,18.714,11.604c11.543,0,20.936-9.393,20.936-20.938  C84.844,63.687,77.586,55.208,67.992,53.302z M42.97,73.833c0,2.21,0.35,4.339,0.987,6.341H18.157V25.359l11.638-9.942h35.197V52.95  c-0.361-0.019-0.719-0.055-1.084-0.055C52.363,52.896,42.97,62.288,42.97,73.833z M63.908,91.771c-3.311,0-6.404-0.918-9.07-2.488  c0.021-0.717,0.064-1.615,0.107-1.861c0.779-4.301,5.305-5.203,8.965-5.203c2.529,0,8.475,0.558,9.037,5.721  c0.018,0.163,0.031,0.82,0.037,1.339C70.318,90.851,67.221,91.771,63.908,91.771z M75.859,87.17  c-0.775-4.986-5.197-7.952-11.949-7.952c-6.691,0-11.035,2.796-11.918,7.677c-0.014,0.077-0.025,0.175-0.037,0.276  c-3.663-3.287-5.985-8.041-5.985-13.338c0-9.891,8.047-17.938,17.938-17.938c9.889,0,17.936,8.047,17.936,17.938  C81.844,79.13,79.521,83.883,75.859,87.17z"/><text x="0" y="115" fill="#000000" font-size="5px" font-weight="bold" font-family="'Helvetica Neue', Helvetica, Arial-Unicode, Arial, Sans-serif">Created by Deepz</text><text x="0" y="120" fill="#000000" font-size="5px" font-weight="bold" font-family="'Helvetica Neue', Helvetica, Arial-Unicode, Arial, Sans-serif">from the Noun Project</text></svg>